<svg width="39" height="50" viewBox="0 0 39 50" fill="none" xmlns="http://www.w3.org/2000/svg">
<path d="M0 50L1.38328 49.7C1.81451 49.6083 2.24157 49.5229 2.6728 49.4375C3.33528 49.3084 3.99983 49.1813 4.66231 49.0584C5.16228 48.9625 5.66226 48.8813 6.16433 48.7896L6.2789 48.7584C6.79972 48.6667 7.31636 48.5709 7.83509 48.5084L10.3642 48.1355V0H10.2767C8.96421 0.00833299 7.6601 0.0333319 6.35182 0.0749969C4.91646 0.112495 3.44777 0.199992 2.01033 0.293738C1.38744 0.337486 0.760385 0.389567 0.137494 0.439565H0.043748V49.9875L0 50ZM12.8161 0.0333319V47.8272C14.6098 47.6188 16.3993 47.448 18.1951 47.3147C22.6136 46.9793 27.0447 46.8751 31.4716 47.0001C33.8215 47.071 36.1652 47.2064 38.5005 47.4001V3.1332C36.4089 2.65614 34.309 2.23324 32.1924 1.86867C28.0926 1.1562 23.9532 0.658306 19.8033 0.345819C17.4826 0.177076 15.1515 0.0708304 12.8203 0.0354152H12.8161V0.0333319ZM35.2381 30.8591L35.1423 30.8508L33.9736 30.7237C31.0591 30.4196 28.1301 30.2196 25.2094 30.1175C22.2782 30.0238 19.345 30.055 16.4118 30.1508H16.3202C16.2264 30.1508 16.1306 30.1508 16.0389 30.1175C15.8285 30.055 15.6327 29.9633 15.4827 29.8071C15.2181 29.5238 15.0952 29.1509 15.1577 28.7759C15.1744 28.6488 15.2181 28.5571 15.2702 28.4301C15.3264 28.3384 15.4014 28.2134 15.4869 28.1509C15.5764 28.0572 15.6743 27.9947 15.7848 27.9343C15.9118 27.8718 16.0368 27.8384 16.1597 27.8072H16.3472C16.7535 27.8072 17.1618 27.7738 17.5347 27.7738C20.4408 27.7134 23.3115 27.7134 26.2197 27.8363C29.2175 27.9613 32.1862 28.1801 35.1527 28.5238L35.4673 28.5551C35.5589 28.5884 35.6527 28.5884 35.7485 28.6176C35.9673 28.7134 36.1527 28.8363 36.2797 28.9946C36.3714 29.0863 36.4339 29.2113 36.4985 29.3363C36.5589 29.4634 36.5901 29.5863 36.5901 29.7113C36.6214 30.055 36.4985 30.3987 36.2485 30.6487C36.1527 30.7446 36.0589 30.805 35.9673 30.8675C35.8693 30.93 35.7485 30.9591 35.6214 30.9925C35.5589 31.0258 35.5277 31.0258 35.436 31.0258H35.3381L35.2381 30.8591ZM35.311 25.2114C35.2194 25.2114 35.2194 25.2115 35.1235 25.1989L33.9673 25.051C31.0612 24.6781 28.1259 24.4261 25.2219 24.3032C22.3157 24.1469 19.3784 24.1157 16.4431 24.1782L16.3472 24.1448C16.2535 24.1136 16.1597 24.1136 16.066 24.0844C15.8785 24.0219 15.6618 23.8969 15.5369 23.7386C15.4744 23.6448 15.3785 23.5219 15.3494 23.4303C15.1931 23.0845 15.1931 22.6782 15.3785 22.3366C15.4431 22.2095 15.5056 22.1178 15.5973 22.0241C15.6889 21.9303 15.7848 21.8366 15.9098 21.8074C16.0368 21.7449 16.1577 21.6824 16.2847 21.6824L16.4722 21.6491L17.6909 21.6178C20.5991 21.5845 23.4699 21.6491 26.3427 21.8053C29.3404 21.9616 32.3112 22.2428 35.2777 22.6178L35.5881 22.6511L35.7777 22.6803C35.9964 22.7449 36.1818 22.8365 36.3401 23.0261C36.5901 23.274 36.7151 23.6178 36.6839 23.9615C36.6839 24.0886 36.6506 24.2136 36.5901 24.3052C36.5297 24.4302 36.4631 24.5219 36.4026 24.6177C36.3401 24.7094 36.2485 24.774 36.1193 24.8677C36.0277 24.9281 35.9027 24.9615 35.7777 24.9948L35.5881 25.024H35.5006L35.311 25.2114ZM35.311 19.5638C35.2194 19.5638 35.2194 19.5638 35.1235 19.5513L33.9673 19.3846C31.0612 18.9888 28.1572 18.6888 25.2219 18.493C22.3157 18.3013 19.3784 18.2117 16.4431 18.2242H16.3472L16.1597 18.1909C16.0368 18.1576 15.9431 18.1159 15.8181 18.0492C15.5056 17.8576 15.2848 17.5201 15.2244 17.1368C15.2244 17.0097 15.2244 16.8868 15.2577 16.7618C15.2869 16.6347 15.3181 16.5181 15.3806 16.4076C15.4452 16.2952 15.5389 16.1952 15.6327 16.1077C15.7868 15.9514 16.0077 15.8452 16.2264 15.7952C16.3202 15.7723 16.4118 15.7639 16.5076 15.7639H17.693C20.6908 15.7827 23.6907 15.8973 26.6593 16.1222C29.5654 16.341 32.4382 16.6639 35.311 17.0743L35.6235 17.118C35.7193 17.1326 35.7506 17.1326 35.811 17.1576C35.936 17.1993 36.061 17.2534 36.1547 17.3243C36.2818 17.393 36.3714 17.4805 36.436 17.5805C36.5006 17.6805 36.5631 17.7909 36.6235 17.9097C36.7526 18.2347 36.7172 18.6055 36.5631 18.9075C36.5026 19.0221 36.436 19.1263 36.3443 19.2117C36.1881 19.3659 36.0027 19.4763 35.7818 19.5242C35.7214 19.5492 35.686 19.5492 35.5923 19.5534L35.5006 19.5638H35.311ZM35.311 13.914C35.2194 13.914 35.2194 13.914 35.1235 13.8994L33.9673 13.7119C31.0612 13.2432 28.1572 12.8974 25.2219 12.6786C22.3157 12.4307 19.3784 12.3057 16.4431 12.2432H16.3472L16.1285 12.2141C16.0014 12.1828 15.8889 12.1203 15.7848 12.0599C15.6743 11.9953 15.5785 11.9016 15.4931 11.8078C15.4181 11.7141 15.3514 11.5912 15.2973 11.4974C15.2556 11.3724 15.2202 11.2474 15.2056 11.1204C15.1723 10.7454 15.316 10.3475 15.5827 10.0912C15.7368 9.935 15.9493 9.83084 16.1639 9.77876C16.2577 9.74751 16.3514 9.74751 16.4451 9.74751C16.8389 9.74751 17.2368 9.75793 17.6326 9.76418C20.6262 9.83501 23.6136 9.99958 26.5989 10.2767C29.4884 10.5246 32.3695 10.9016 35.2339 11.3683L35.5152 11.4016C35.5985 11.4016 35.6235 11.4016 35.7027 11.4308C35.8318 11.4641 35.936 11.5266 36.0464 11.5891C36.1422 11.6495 36.2339 11.7433 36.3068 11.837C36.4964 12.1182 36.5881 12.4641 36.5256 12.8057C36.4943 12.9328 36.461 13.0245 36.3985 13.1515C36.336 13.2453 36.2443 13.3682 36.1485 13.4328C35.9943 13.5869 35.8048 13.6807 35.5839 13.7432H35.3027L35.311 13.914ZM2.66656 12.8536C2.47906 12.8536 2.28949 12.8099 2.102 12.7224C1.69785 12.5245 1.44786 12.112 1.41661 11.6703C1.41661 11.5516 1.44786 11.4391 1.47911 11.3266C1.50827 11.1849 1.57285 11.0495 1.6666 10.9308C1.76034 10.7954 1.88325 10.6808 2.00825 10.5933C2.16866 10.4891 2.35615 10.435 2.51031 10.4016L3.51027 10.31C4.88313 10.1892 6.22891 10.0912 7.57052 10.01H7.69551C7.91425 10.0183 8.10175 10.06 8.26007 10.1579C8.66422 10.3725 8.91421 10.7933 8.91421 11.2391C8.91421 11.3537 8.88296 11.4662 8.8538 11.5745C8.82047 11.7141 8.76005 11.8495 8.66422 11.9683C8.57256 12.1245 8.44756 12.2182 8.32049 12.312C8.16633 12.4057 8.008 12.4661 7.82051 12.4995C7.60385 12.5307 7.38511 12.5307 7.16637 12.562C6.88305 12.5932 6.57056 12.5932 6.25807 12.6266L3.82484 12.8099L3.23112 12.8745C3.10404 12.9057 2.97696 12.9057 2.8228 12.9057L2.66656 12.8536ZM35.2798 8.2684L35.0902 8.24757L33.9361 8.03925C31.03 7.55177 28.0926 7.15387 25.1573 6.8643C22.2512 6.57681 19.3159 6.39557 16.3785 6.29974H16.2847L16.0972 6.26224C15.9702 6.23099 15.8785 6.18308 15.7535 6.11433C15.6598 6.05183 15.5639 5.96433 15.4723 5.86226C15.2223 5.57477 15.1285 5.17478 15.2223 4.80813C15.2556 4.68105 15.316 4.55814 15.3764 4.43315C15.441 4.30607 15.5348 4.21441 15.6285 4.12066C15.7827 3.96233 16.0035 3.86859 16.2222 3.80817C16.316 3.77693 16.4076 3.77693 16.5035 3.77693L17.7201 3.80817C20.6262 3.93525 23.499 4.12066 26.3739 4.43523C29.3717 4.74355 32.3403 5.18312 35.3069 5.68518L35.6193 5.71434C35.7152 5.71434 35.7464 5.71434 35.8068 5.74768C35.9318 5.77893 36.0568 5.84142 36.1506 5.90184C36.4318 6.12058 36.6193 6.43515 36.6485 6.77888C36.6818 6.90388 36.6485 7.02887 36.6172 7.15595C36.6172 7.27886 36.5568 7.40386 36.4943 7.4976C36.4297 7.59135 36.3652 7.6851 36.2756 7.77884C36.1172 7.93717 35.8985 8.02883 35.6798 8.06008L35.5006 8.08925H35.4048L35.2798 8.2684ZM2.63114 6.66639C2.45198 6.66639 2.27491 6.62681 2.11033 6.54973C1.9645 6.48098 1.83117 6.38515 1.72076 6.26432C1.62702 6.15391 1.5416 6.031 1.48952 5.88725C1.44786 5.78518 1.41869 5.67685 1.40827 5.56227C1.36244 5.11645 1.57077 4.67272 1.9395 4.42482C2.102 4.31232 2.2874 4.24566 2.48115 4.21857C2.8103 4.18941 3.13529 4.18941 3.46652 4.15816C4.82063 4.06441 6.17683 4.00192 7.52677 3.93942H7.62677C7.81634 3.97275 8.00383 4.00192 8.16008 4.09566C8.53298 4.3144 8.78505 4.75189 8.78505 5.18728C8.78505 5.31436 8.75172 5.43936 8.72255 5.5331C8.66006 5.68726 8.59756 5.81434 8.5059 5.93934C8.40798 6.06433 8.28299 6.18933 8.12674 6.25182C7.9705 6.34557 7.78301 6.40807 7.59552 6.40807C7.37886 6.43723 7.15803 6.43723 6.90804 6.43723L5.97267 6.50181C5.12895 6.56223 4.31649 6.59556 3.50194 6.65597L2.87696 6.6893C2.72072 6.72055 2.59781 6.72055 2.47281 6.72055L2.63114 6.66639Z" fill="black"/>
</svg>
