<svg width="146" height="49" viewBox="0 0 146 49" fill="none" xmlns="http://www.w3.org/2000/svg">
<g clip-path="url(#clip0)">
<path d="M85.3416 17.9893H77.9599L77.5592 19.4211L85.757 30.6446C87.3099 28.9559 88.9995 27.2443 90.8374 25.5556" fill="#FF006B"/>
<path d="M91.9558 39.1316L99.1611 49H106.633L106.942 47.693L96.1831 32.9023C94.7542 34.8719 93.3425 36.952 91.9558 39.1316" fill="#FF006B"/>
<path d="M84.243 48.9772H77.5643L77 47.3173C81.5411 39.0824 101.852 3.78197 146 0C146 0 108.944 2.34768 84.243 48.9772" fill="#FF006B"/>
</g>
<path d="M4.98 39.336H11.928V42H1.752V24.648H4.98V39.336ZM23.6304 42H22.2984C22.0184 42 21.7984 41.96 21.6384 41.88C21.4784 41.792 21.3584 41.62 21.2784 41.364L21.0144 40.488C20.7024 40.768 20.3944 41.016 20.0904 41.232C19.7944 41.44 19.4864 41.616 19.1664 41.76C18.8464 41.904 18.5064 42.012 18.1464 42.084C17.7864 42.156 17.3864 42.192 16.9464 42.192C16.4264 42.192 15.9464 42.124 15.5064 41.988C15.0664 41.844 14.6864 41.632 14.3664 41.352C14.0544 41.072 13.8104 40.724 13.6344 40.308C13.4584 39.892 13.3704 39.408 13.3704 38.856C13.3704 38.392 13.4904 37.936 13.7304 37.488C13.9784 37.032 14.3864 36.624 14.9544 36.264C15.5224 35.896 16.2784 35.592 17.2224 35.352C18.1664 35.112 19.3384 34.976 20.7384 34.944V34.224C20.7384 33.4 20.5624 32.792 20.2104 32.4C19.8664 32 19.3624 31.8 18.6984 31.8C18.2184 31.8 17.8184 31.856 17.4984 31.968C17.1784 32.08 16.8984 32.208 16.6584 32.352C16.4264 32.488 16.2104 32.612 16.0104 32.724C15.8104 32.836 15.5904 32.892 15.3504 32.892C15.1504 32.892 14.9784 32.84 14.8344 32.736C14.6904 32.632 14.5744 32.504 14.4864 32.352L13.9464 31.404C15.3624 30.108 17.0704 29.46 19.0704 29.46C19.7904 29.46 20.4304 29.58 20.9904 29.82C21.5584 30.052 22.0384 30.38 22.4304 30.804C22.8224 31.22 23.1184 31.72 23.3184 32.304C23.5264 32.888 23.6304 33.528 23.6304 34.224V42ZM17.8704 40.152C18.1744 40.152 18.4544 40.124 18.7104 40.068C18.9664 40.012 19.2064 39.928 19.4304 39.816C19.6624 39.704 19.8824 39.568 20.0904 39.408C20.3064 39.24 20.5224 39.044 20.7384 38.82V36.744C19.8744 36.784 19.1504 36.86 18.5664 36.972C17.9904 37.076 17.5264 37.212 17.1744 37.38C16.8224 37.548 16.5704 37.744 16.4184 37.968C16.2744 38.192 16.2024 38.436 16.2024 38.7C16.2024 39.22 16.3544 39.592 16.6584 39.816C16.9704 40.04 17.3744 40.152 17.8704 40.152ZM29.2569 29.688V37.512C29.2569 38.264 29.4289 38.848 29.7729 39.264C30.1249 39.672 30.6489 39.876 31.3449 39.876C31.8569 39.876 32.3369 39.764 32.7849 39.54C33.2329 39.308 33.6569 38.992 34.0569 38.592V29.688H37.0209V42H35.2089C34.8249 42 34.5729 41.82 34.4529 41.46L34.2489 40.476C33.9929 40.732 33.7289 40.968 33.4569 41.184C33.1849 41.392 32.8929 41.572 32.5809 41.724C32.2769 41.868 31.9449 41.98 31.5849 42.06C31.2329 42.148 30.8529 42.192 30.4449 42.192C29.7729 42.192 29.1769 42.08 28.6569 41.856C28.1449 41.624 27.7129 41.3 27.3609 40.884C27.0089 40.468 26.7409 39.976 26.5569 39.408C26.3809 38.832 26.2929 38.2 26.2929 37.512V29.688H29.2569ZM40.1856 42V29.688H41.9976C42.3816 29.688 42.6336 29.868 42.7536 30.228L42.9576 31.2C43.2056 30.944 43.4656 30.712 43.7376 30.504C44.0176 30.296 44.3096 30.116 44.6136 29.964C44.9256 29.812 45.2576 29.696 45.6096 29.616C45.9616 29.536 46.3456 29.496 46.7616 29.496C47.4336 29.496 48.0296 29.612 48.5496 29.844C49.0696 30.068 49.5016 30.388 49.8456 30.804C50.1976 31.212 50.4616 31.704 50.6376 32.28C50.8216 32.848 50.9136 33.476 50.9136 34.164V42H47.9496V34.164C47.9496 33.412 47.7736 32.832 47.4216 32.424C47.0776 32.008 46.5576 31.8 45.8616 31.8C45.3496 31.8 44.8696 31.916 44.4216 32.148C43.9736 32.38 43.5496 32.696 43.1496 33.096V42H40.1856ZM62.4782 32.292C62.3902 32.404 62.3022 32.492 62.2142 32.556C62.1342 32.62 62.0142 32.652 61.8542 32.652C61.7022 32.652 61.5542 32.608 61.4102 32.52C61.2662 32.424 61.0942 32.32 60.8942 32.208C60.6942 32.088 60.4542 31.984 60.1742 31.896C59.9022 31.8 59.5622 31.752 59.1542 31.752C58.6342 31.752 58.1782 31.848 57.7862 32.04C57.3942 32.224 57.0662 32.492 56.8022 32.844C56.5462 33.196 56.3542 33.624 56.2262 34.128C56.0982 34.624 56.0342 35.188 56.0342 35.82C56.0342 36.476 56.1022 37.06 56.2382 37.572C56.3822 38.084 56.5862 38.516 56.8502 38.868C57.1142 39.212 57.4342 39.476 57.8102 39.66C58.1862 39.836 58.6102 39.924 59.0822 39.924C59.5542 39.924 59.9342 39.868 60.2222 39.756C60.5182 39.636 60.7662 39.508 60.9662 39.372C61.1662 39.228 61.3382 39.1 61.4822 38.988C61.6342 38.868 61.8022 38.808 61.9862 38.808C62.2262 38.808 62.4062 38.9 62.5262 39.084L63.3782 40.164C63.0502 40.548 62.6942 40.872 62.3102 41.136C61.9262 41.392 61.5262 41.6 61.1102 41.76C60.7022 41.912 60.2782 42.02 59.8382 42.084C59.3982 42.148 58.9622 42.18 58.5302 42.18C57.7702 42.18 57.0542 42.04 56.3822 41.76C55.7102 41.472 55.1222 41.056 54.6182 40.512C54.1222 39.968 53.7262 39.304 53.4302 38.52C53.1422 37.728 52.9982 36.828 52.9982 35.82C52.9982 34.916 53.1262 34.08 53.3822 33.312C53.6462 32.536 54.0302 31.868 54.5342 31.308C55.0382 30.74 55.6622 30.296 56.4062 29.976C57.1502 29.656 58.0062 29.496 58.9742 29.496C59.8942 29.496 60.6982 29.644 61.3862 29.94C62.0822 30.236 62.7062 30.66 63.2582 31.212L62.4782 32.292ZM65.2637 42V24.168H68.2277V31.02C68.7077 30.564 69.2357 30.196 69.8117 29.916C70.3877 29.636 71.0637 29.496 71.8397 29.496C72.5117 29.496 73.1077 29.612 73.6277 29.844C74.1477 30.068 74.5797 30.388 74.9237 30.804C75.2757 31.212 75.5397 31.704 75.7157 32.28C75.8997 32.848 75.9917 33.476 75.9917 34.164V42H73.0277V34.164C73.0277 33.412 72.8517 32.832 72.4997 32.424C72.1557 32.008 71.6357 31.8 70.9397 31.8C70.4277 31.8 69.9477 31.916 69.4997 32.148C69.0517 32.38 68.6277 32.696 68.2277 33.096V42H65.2637Z" fill="black"/>
<line x1="1" y1="48" x2="103" y2="48" stroke="#FF006B" stroke-width="2"/>
<defs>
<clipPath id="clip0">
<rect width="69" height="49" fill="white" transform="translate(77)"/>
</clipPath>
</defs>
</svg>
