<svg width="60" height="50" viewBox="0 0 60 50" fill="none" xmlns="http://www.w3.org/2000/svg">
<path d="M5.4875 30.0991C5.33811 30.7863 5.26093 31.4934 5.26093 32.2079C5.26093 40.7803 16.221 47.7667 29.6957 47.7667C43.1655 47.7667 54.1256 40.7853 54.1256 32.2079C54.1256 31.5257 54.0534 30.8485 53.9214 30.1937L53.8841 30.114C53.8318 29.9771 53.8119 29.8402 53.8119 29.7032C53.06 26.7777 51.0308 24.1236 48.0953 21.9774C47.9833 21.9376 47.8762 21.8803 47.7816 21.8031C47.7169 21.7533 47.6696 21.6985 47.6148 21.6438C43.1531 18.5714 36.7692 16.6443 29.6982 16.6443C22.6895 16.6443 16.3679 18.534 11.9062 21.5516C11.8713 21.5965 11.834 21.6338 11.7842 21.6736C11.6871 21.7558 11.575 21.823 11.4605 21.8604C8.45782 24.0066 6.37636 26.6831 5.59954 29.636C5.59954 29.7804 5.56468 29.9198 5.50742 30.0617L5.4875 30.0991ZM29.8202 43.646C25.3536 43.646 22.2089 42.6775 20.2022 40.6658C19.7714 40.2325 19.7714 39.5279 20.2022 39.0922C20.6404 38.6814 21.3475 38.6814 21.7832 39.0922C23.3518 40.6583 25.9785 41.4401 29.8202 41.4401C33.6595 41.4401 36.2713 40.6932 37.8349 39.1271C38.2457 38.7188 38.9553 38.7188 39.401 39.1271C39.8118 39.5752 39.8118 40.2848 39.401 40.733C37.3867 42.7447 34.2595 43.7158 29.7854 43.7158L29.8202 43.646ZM20.842 24.7909C18.5664 24.7909 16.6667 26.6955 16.6667 28.9662C16.6667 31.2319 18.5664 33.0744 20.842 33.0744C23.1177 33.0744 24.9527 31.2319 24.9527 28.9662C24.9527 26.6955 23.1127 24.7909 20.842 24.7909ZM38.8507 24.7909C36.575 24.7909 34.6728 26.6955 34.6728 28.9662C34.6728 31.2319 36.575 33.0744 38.8507 33.0744C41.1264 33.0744 42.9614 31.2319 42.9614 28.9662C42.9614 26.6955 41.1214 24.7909 38.8507 24.7909ZM50.1743 20.8196C52.7562 22.8936 54.6559 25.3535 55.6244 28.05C56.7448 27.2134 57.4146 25.8988 57.4146 24.4423C57.4146 21.9475 55.3854 19.9208 52.8882 19.9208C51.8947 19.9208 50.9511 20.242 50.1743 20.8246V20.8196ZM6.74983 19.9258C4.25256 19.9258 2.22587 21.9575 2.22587 24.4522C2.22587 25.8042 2.82093 27.0615 3.8293 27.9106C4.82771 25.2241 6.74734 22.799 9.33921 20.7499C8.58729 20.2271 7.68848 19.9308 6.75232 19.9308V19.9258H6.74983ZM29.6982 50C14.9935 50 3.03506 42.0202 3.03506 32.2179C3.03506 31.5332 3.09232 30.8635 3.20436 30.2037C1.22996 28.9762 0 26.8126 0 24.4423C0 20.7176 3.05497 17.6875 6.78468 17.6875C8.4628 17.6875 10.0289 18.3 11.2588 19.3855C15.8799 16.4202 22.1069 14.5528 28.9662 14.4259L33.4777 0.672244L34.4836 0.908774C34.4836 0.908774 34.5235 0.908774 34.5235 0.913753L45.0378 3.38612C45.8943 1.39926 47.8712 0 50.1793 0C53.2392 0 55.734 2.49975 55.734 5.56219C55.734 8.62962 53.2367 11.1244 50.1793 11.1244C47.1218 11.1244 44.627 8.62464 44.627 5.57215L35.0388 3.30146L31.3863 14.4483C37.9843 14.7097 43.9523 16.5745 48.4265 19.4801C49.6564 18.3249 51.2748 17.69 52.9902 17.69C56.72 17.69 59.7575 20.7101 59.7575 24.4398C59.7575 26.8972 58.413 29.1355 56.3266 30.3282C56.3988 30.9631 56.4735 31.5581 56.4735 32.193C56.4361 41.9978 44.5075 49.9776 29.7829 49.9776L29.6982 50ZM50.0622 2.22836C48.2198 2.22836 46.7259 3.71975 46.7259 5.5597C46.7259 7.39717 48.2198 8.89603 50.0622 8.89603C51.8848 8.89603 53.3737 7.40215 53.3737 5.57464C53.3737 3.74963 51.8848 2.25824 50.0199 2.25824L50.0622 2.22836Z" fill="white"/>
</svg>
