<svg width="72" height="50" viewBox="0 0 72 50" fill="none" xmlns="http://www.w3.org/2000/svg">
<path d="M70.0489 7.72056C69.6342 6.23479 68.8433 4.88111 67.7526 3.79037C66.6618 2.69963 65.3082 1.9087 63.8224 1.49405C58.246 4.28362e-05 35.8031 4.2302e-05 35.8031 4.2302e-05C35.8031 4.2302e-05 13.4169 -0.0297776 7.78378 1.49405C6.29802 1.9087 4.94434 2.69963 3.8536 3.79037C2.76285 4.88111 1.97193 6.23479 1.55727 7.72056C0.500198 13.4297 -0.0209443 19.2252 0.000644099 25.0313C-0.0168631 30.8156 0.504262 36.5889 1.55727 42.2765C1.97193 43.7623 2.76285 45.1159 3.8536 46.2067C4.94434 47.2974 6.29802 48.0884 7.78378 48.503C13.3542 50 35.8031 50 35.8031 50C35.8031 50 58.1863 50 63.8224 48.503C65.3082 48.0884 66.6618 47.2974 67.7526 46.2067C68.8433 45.1159 69.6342 43.7623 70.0489 42.2765C71.0799 36.5868 71.5791 30.8135 71.5399 25.0313C71.5832 19.2272 71.084 13.4318 70.0489 7.72056ZM28.6402 35.7399V14.29L47.3197 25.0313L28.6402 35.7399Z" fill="black"/>
</svg>
