<svg width="79" height="50" viewBox="0 0 79 50" fill="none" xmlns="http://www.w3.org/2000/svg">
<path d="M39.6995 28.6715C36.626 35.0156 32.4196 43.6056 30.3312 47.4804C28.3085 51.007 26.6305 50.5374 25.3006 47.5756C20.6838 36.6705 11.2039 17.5497 6.74465 6.82857C5.92045 4.85508 5.29655 3.58759 4.71206 3.08847C4.11772 2.59592 2.89291 2.30039 1.02779 2.1986C0.338218 2.11979 0 1.95232 0 1.67649V0.182426L0.170751 0.0346608C3.20486 0.0182425 17.9058 0.0346608 17.9058 0.0346608L18.0733 0.182426V1.60754C18.0733 1.99829 17.827 2.18546 17.3345 2.18546L15.4825 2.28726C13.8899 2.38248 13.0953 2.82578 13.0953 3.71894C13.0953 4.16223 13.2693 4.80254 13.6403 5.69242C17.1933 14.381 29.4611 40.2399 29.4611 40.2399L29.9076 40.3909L37.8246 24.5965L36.2418 21.0928L30.7975 10.3749C30.7975 10.3749 29.7533 8.22741 29.3921 7.51157C27.0016 2.77324 27.0541 2.52696 24.6406 2.20188C23.9609 2.12636 23.6128 2.0377 23.6128 1.71261V0.175859L23.8099 0.028094H37.9034L38.2744 0.14959V1.63052C38.2744 1.97531 38.0249 2.12307 37.529 2.12307L36.5177 2.27741C33.917 2.47771 34.3471 3.52848 36.0711 6.94678L41.2658 17.6253L47.0385 6.1193C48.0006 4.01775 47.8036 3.48908 47.403 3.00966C47.1731 2.73383 46.4015 2.28726 44.7367 2.22158L44.0767 2.15263C43.9059 2.15263 43.7549 2.10337 43.6005 1.98516C43.4528 1.88337 43.3805 1.7356 43.3805 1.56157V0.15944L43.5808 0.0116753C47.6756 -0.0145941 56.8567 0.0116753 56.8567 0.0116753L57.0504 0.15944V1.59112C57.0504 1.98844 56.8567 2.17561 56.4167 2.17561C54.2954 2.27412 53.8488 2.48756 53.0575 3.61714C52.6634 4.2279 51.8261 5.55122 50.9362 7.02887L43.3805 21.06L43.1671 21.5033L52.3351 40.2596L52.8933 40.4172L67.3283 6.14228C67.834 4.75657 67.7519 3.77147 67.1181 3.2034C66.4713 2.63861 65.982 2.30696 64.304 2.23472L62.9249 2.18218C62.7246 2.18218 62.5801 2.13621 62.4258 2.03441C62.2846 1.93919 62.1894 1.78814 62.1894 1.64366V0.21198L62.3831 0.0642148H78.6734L78.808 0.21198V1.64694C78.808 2.0377 78.565 2.238 78.1217 2.238C75.9939 2.33651 74.421 2.82906 73.3834 3.62042C72.3523 4.45776 71.5544 5.64316 70.9666 7.1241C70.9666 7.1241 57.6907 37.5243 53.1494 47.6413C51.4255 50.9479 49.6917 50.6524 48.2141 47.5395C46.3391 43.6943 42.3921 35.1075 39.5255 28.7897L39.6995 28.6715Z" fill="white"/>
</svg>
