<svg width="120" height="56" viewBox="0 0 120 56" fill="none" xmlns="http://www.w3.org/2000/svg">
<g clip-path="url(#clip0)">
<path d="M11.4196 20.2671H1.31401L0.765472 21.8803L11.9882 34.5249C14.1142 32.6223 16.4273 30.6941 18.9434 28.7915" fill="#FF006B"/>
<path d="M20.4745 44.0865L30.3386 55.2045H40.5675L40.9909 53.7319L26.2617 37.0685C24.3055 39.2875 22.3729 41.6309 20.4745 44.0865Z" fill="#FF006B"/>
<path d="M9.81412 55.2045H0.613373H-1.22678C4.99002 45.9269 34.0218 4.26085 94.461 0C94.461 0 43.6294 2.67065 9.81412 55.2045Z" fill="#FF006B"/>
</g>
<path d="M47.502 48H44.836C44.526 48 44.3193 47.8243 44.216 47.473L40.651 32.717C40.5683 32.3657 40.6923 32.19 41.023 32.19H43.255C43.627 32.19 43.8337 32.3657 43.875 32.717L46.138 44.435H46.355L49.083 32.717C49.145 32.3657 49.3413 32.19 49.672 32.19H51.718C52.0693 32.19 52.2863 32.3657 52.369 32.717L55.035 44.435H55.252L57.515 32.717C57.577 32.3657 57.7837 32.19 58.135 32.19H60.367C60.7183 32.19 60.8423 32.3657 60.739 32.717L57.174 47.473C57.112 47.8243 56.9053 48 56.554 48H53.888C53.5573 48 53.3507 47.8243 53.268 47.473L50.788 35.972H50.571L48.122 47.473C48.06 47.8243 47.8533 48 47.502 48ZM69.0906 48H67.8816C66.3523 48 65.1639 47.5763 64.3166 46.729C63.4899 45.8817 63.0766 44.7037 63.0766 43.195V36.995C63.0766 35.4657 63.4899 34.2877 64.3166 33.461C65.1639 32.6137 66.3523 32.19 67.8816 32.19H74.8256C75.1976 32.19 75.3836 32.3657 75.3836 32.717V47.473C75.3836 47.8243 75.1976 48 74.8256 48H72.8726C72.5213 48 72.3456 47.8243 72.3456 47.473V46.357H72.2216C71.7256 47.4523 70.6819 48 69.0906 48ZM72.3456 42.73V35.135C72.3456 34.9283 72.2319 34.825 72.0046 34.825H68.3156C66.8276 34.825 66.0836 35.5897 66.0836 37.119V43.071C66.0836 44.6003 66.8276 45.365 68.3156 45.365H69.8036C71.4983 45.365 72.3456 44.4867 72.3456 42.73ZM79.7149 34.825H78.2269C78.0202 34.825 77.8755 34.794 77.7929 34.732C77.7309 34.6493 77.6999 34.515 77.6999 34.329V32.717C77.6999 32.3657 77.8755 32.19 78.2269 32.19H79.7149C79.9215 32.19 80.0249 32.0867 80.0249 31.88V29.09C80.0249 28.7387 80.2109 28.563 80.5829 28.563H82.5359C82.8872 28.563 83.0629 28.7387 83.0629 29.09V31.88C83.0629 32.0867 83.1765 32.19 83.4039 32.19H86.2869C86.6589 32.19 86.8449 32.3657 86.8449 32.717V34.329C86.8449 34.6597 86.6589 34.825 86.2869 34.825H83.4039C83.1765 34.825 83.0629 34.9283 83.0629 35.135V43.102C83.0629 44.6107 83.8379 45.365 85.3879 45.365H86.5969C86.9689 45.365 87.1549 45.5407 87.1549 45.892V47.504C87.1549 47.8347 86.9689 48 86.5969 48H84.9229C83.3935 48 82.1949 47.5867 81.3269 46.76C80.4589 45.9333 80.0249 44.7657 80.0249 43.257V35.135C80.0249 34.9283 79.9215 34.825 79.7149 34.825ZM99.728 45.892V47.504C99.728 47.8347 99.542 48 99.17 48H94.613C93.0837 48 91.8954 47.5763 91.048 46.729C90.2214 45.8817 89.808 44.7037 89.808 43.195V36.995C89.808 35.4657 90.2214 34.2877 91.048 33.461C91.8954 32.6137 93.0837 32.19 94.613 32.19H99.17C99.542 32.19 99.728 32.3657 99.728 32.717V34.329C99.728 34.6597 99.542 34.825 99.17 34.825H95.047C93.559 34.825 92.815 35.5897 92.815 37.119V43.071C92.815 44.6003 93.559 45.365 95.047 45.365H99.17C99.542 45.365 99.728 45.5407 99.728 45.892ZM105.162 48H103.209C102.857 48 102.682 47.8243 102.682 47.473V26.734C102.682 26.3827 102.857 26.207 103.209 26.207H105.162C105.513 26.207 105.689 26.3827 105.689 26.734V33.833H105.813C106.309 32.7377 107.352 32.19 108.944 32.19H110.308C111.816 32.19 112.974 32.6033 113.78 33.43C114.586 34.2567 114.989 35.445 114.989 36.995V47.473C114.989 47.8243 114.803 48 114.431 48H112.478C112.126 48 111.951 47.8243 111.951 47.473V37.119C111.951 35.5897 111.196 34.825 109.688 34.825H108.231C106.536 34.825 105.689 35.7033 105.689 37.46V47.473C105.689 47.8243 105.513 48 105.162 48Z" fill="white"/>
<line x1="1.22678" y1="54.2045" x2="115.316" y2="54.2045" stroke="#FF006B" stroke-width="2"/>
<defs>
<clipPath id="clip0">
<rect width="94.461" height="55.2045" fill="white"/>
</clipPath>
</defs>
</svg>
